<svg xmlns="http://www.w3.org/2000/svg" width="231.205" height="36.56" viewBox="0 0 231.205 36.56">
  <g id="logodp2-white" transform="translate(-20.95 -21.24)">
    <g id="text">
      <path id="Caminho_192" data-name="Caminho 192" d="M36.29,31.42a7.28,7.28,0,0,0-1.05-.92,8.749,8.749,0,0,0-5.08-1.64,8.418,8.418,0,0,0-4.74,1.37,9.575,9.575,0,0,0-3.27,3.73,11.663,11.663,0,0,0-1.2,5.37,11.7,11.7,0,0,0,1.2,5.42,9.425,9.425,0,0,0,3.29,3.69,8.534,8.534,0,0,0,4.72,1.35,8.782,8.782,0,0,0,2.68-.4,8.313,8.313,0,0,0,2.28-1.1,6.825,6.825,0,0,0,1.35-1.26l.12,2.39h5.1V21.24H36.28V31.42Zm-.45,11.03a5.1,5.1,0,0,1-1.79,2.09,4.752,4.752,0,0,1-2.67.76,4.588,4.588,0,0,1-2.65-.76,5.139,5.139,0,0,1-1.75-2.09,7.991,7.991,0,0,1,0-6.22,4.891,4.891,0,0,1,1.75-2.09,4.73,4.73,0,0,1,2.65-.74,4.731,4.731,0,0,1,4.46,2.83,7.13,7.13,0,0,1,.65,3.1A7.239,7.239,0,0,1,35.84,42.45Z" fill="#fff"/>
      <path id="Caminho_193" data-name="Caminho 193" d="M63.19,30.24a8.244,8.244,0,0,0-4.66-1.35,8.48,8.48,0,0,0-3.27.65,8.042,8.042,0,0,0-2.61,1.68,5.479,5.479,0,0,0-.4.44l-.08-2.38H46.95V57.8h5.44V47.2c.04.04.07.09.11.13a8.239,8.239,0,0,0,2.68,1.77,8.537,8.537,0,0,0,3.33.67,8.332,8.332,0,0,0,4.68-1.35,9.377,9.377,0,0,0,3.24-3.71,11.783,11.783,0,0,0,1.18-5.37,11.659,11.659,0,0,0-1.2-5.39A9.4,9.4,0,0,0,63.19,30.24ZM61.73,42.35a4.952,4.952,0,0,1-1.79,2.04,4.828,4.828,0,0,1-2.63.72,4.734,4.734,0,0,1-4.46-2.76,7.387,7.387,0,0,1,0-6.06,4.774,4.774,0,0,1,1.79-2.02,4.97,4.97,0,0,1,2.67-.7,4.8,4.8,0,0,1,2.65.72,4.986,4.986,0,0,1,1.77,2.02,6.67,6.67,0,0,1,.65,3.01A6.894,6.894,0,0,1,61.73,42.35Z" fill="#fff"/>
      <path id="Caminho_194" data-name="Caminho 194" d="M78.9,44.27l3.92-4.26c.76-.84,1.44-1.64,2.04-2.42a22.051,22.051,0,0,0,1.52-2.21,15.926,15.926,0,0,0,1.03-2,8.9,8.9,0,0,0,.57-1.83,9.177,9.177,0,0,0,.17-1.71,7.2,7.2,0,0,0-4-6.63,9.63,9.63,0,0,0-8.34-.08,10.059,10.059,0,0,0-3.35,2.55,11.653,11.653,0,0,0-2.17,3.84l4.26,2.4a10.084,10.084,0,0,1,1.33-2.4,5.714,5.714,0,0,1,1.64-1.5,3.68,3.68,0,0,1,1.87-.51,3.855,3.855,0,0,1,1.79.38,2.6,2.6,0,0,1,1.1,1.05,3.111,3.111,0,0,1,.38,1.54,4.146,4.146,0,0,1-.42,1.69,10.575,10.575,0,0,1-1.12,1.9c-.47.64-.95,1.28-1.45,1.88s-.96,1.14-1.39,1.6L70.4,46.27l1.26,3.12H89.25V44.25H78.9Z" fill="#fff"/>
      <path id="Caminho_195" data-name="Caminho 195" d="M103.72,45.26,97.37,29.69H94.21l8.38,19.88h2.05l8.91-19.88h-3.04Z" fill="#fff"/>
      <path id="Caminho_196" data-name="Caminho 196" d="M119.07,21.24a2.158,2.158,0,0,0-1.6.57,2.06,2.06,0,0,0-.57,1.52,2.009,2.009,0,0,0,.55,1.5,2.193,2.193,0,0,0,1.62.55,2.158,2.158,0,0,0,1.6-.57,2.02,2.02,0,0,0,.57-1.49,2.045,2.045,0,0,0-.57-1.54A2.186,2.186,0,0,0,119.07,21.24Z" fill="#fff"/>
      <rect id="Retângulo_100" data-name="Retângulo 100" width="2.86" height="19.87" transform="translate(117.66 29.689)" fill="#fff"/>
      <path id="Caminho_197" data-name="Caminho 197" d="M141.99,32.87A7.9,7.9,0,0,0,140.16,31a9.161,9.161,0,0,0-2.49-1.28,9.284,9.284,0,0,0-2.88-.46,8.847,8.847,0,0,0-4.8,1.33,9.611,9.611,0,0,0-3.39,3.67,11.1,11.1,0,0,0-1.26,5.35,11.126,11.126,0,0,0,1.24,5.31,9.246,9.246,0,0,0,3.39,3.67,8.993,8.993,0,0,0,4.85,1.33,8.563,8.563,0,0,0,2.8-.46,8.308,8.308,0,0,0,2.42-1.26,7.777,7.777,0,0,0,1.77-1.81c.06-.08.1-.17.16-.25l.05,3.39h2.82V21.39h-2.85Zm-.74,10.72a6.888,6.888,0,0,1-2.46,2.74,6.466,6.466,0,0,1-3.54.99,6.547,6.547,0,0,1-3.62-1.01,6.893,6.893,0,0,1-2.44-2.76,8.8,8.8,0,0,1-.88-3.96,8.52,8.52,0,0,1,.9-3.98,7.055,7.055,0,0,1,2.44-2.74,6.814,6.814,0,0,1,7.14,0,7.1,7.1,0,0,1,2.46,2.74,8.488,8.488,0,0,1,.89,3.98A8.628,8.628,0,0,1,141.25,43.59Z" fill="#fff"/>
      <path id="Caminho_198" data-name="Caminho 198" d="M165.39,31.96a8.532,8.532,0,0,0-2.86-2,9.1,9.1,0,0,0-3.67-.72,9.993,9.993,0,0,0-3.96.78,9.164,9.164,0,0,0-3.14,2.19,10.186,10.186,0,0,0-2.04,3.29,11.732,11.732,0,0,0-.72,4.21,10.811,10.811,0,0,0,1.29,5.33,9.215,9.215,0,0,0,3.6,3.62,10.606,10.606,0,0,0,5.27,1.29,11.02,11.02,0,0,0,2.97-.4,12.621,12.621,0,0,0,2.67-1.07,9.056,9.056,0,0,0,2.09-1.54l-1.48-2.06a9.842,9.842,0,0,1-3.07,1.88,8.813,8.813,0,0,1-2.8.48,8.272,8.272,0,0,1-4.09-.95,6.482,6.482,0,0,1-2.61-2.68,8.326,8.326,0,0,1-.88-3.45h15.73l.04-1.33a10.63,10.63,0,0,0-.53-3.85A8.457,8.457,0,0,0,165.39,31.96Zm-10.23.87a7.565,7.565,0,0,1,3.69-.86,5.933,5.933,0,0,1,3.14.8,5.648,5.648,0,0,1,2.04,2.08,5.994,5.994,0,0,1,.8,2.65v.27H152.06a8.035,8.035,0,0,1,.7-2.4A5.737,5.737,0,0,1,155.16,32.83Z" fill="#fff"/>
      <path id="Caminho_199" data-name="Caminho 199" d="M185.83,30.61a11.027,11.027,0,0,0-10.5,0,9.639,9.639,0,0,0-3.62,3.66,10.51,10.51,0,0,0-1.31,5.29,10.949,10.949,0,0,0,1.31,5.37,9.579,9.579,0,0,0,3.62,3.69,11.027,11.027,0,0,0,10.5,0,9.579,9.579,0,0,0,3.62-3.69,10.788,10.788,0,0,0,1.31-5.37,10.614,10.614,0,0,0-1.31-5.29A9.569,9.569,0,0,0,185.83,30.61Zm1.05,12.88a6.92,6.92,0,0,1-6.28,3.75,7.041,7.041,0,0,1-6.34-3.75,7.98,7.98,0,0,1-.9-3.94,7.643,7.643,0,0,1,.9-3.9,6.672,6.672,0,0,1,2.59-2.7,7.228,7.228,0,0,1,3.75-.97,7.13,7.13,0,0,1,3.73.97,6.783,6.783,0,0,1,2.55,2.68,8.187,8.187,0,0,1,.91,3.92A8.3,8.3,0,0,1,186.88,43.49Z" fill="#fff"/>
      <path id="Caminho_200" data-name="Caminho 200" d="M208.22,41.95a4.389,4.389,0,0,0-1.47-1.75,7.305,7.305,0,0,0-1.92-1.12,23.138,23.138,0,0,0-2.84-.93c-.96-.25-1.77-.5-2.42-.74a5.447,5.447,0,0,1-1.5-.78,2.468,2.468,0,0,1-.65-.8,2.3,2.3,0,0,1-.23-1.03,2.781,2.781,0,0,1,.29-1.26,2.676,2.676,0,0,1,.84-.97,4.206,4.206,0,0,1,1.33-.63,6.056,6.056,0,0,1,1.69-.23,5.962,5.962,0,0,1,2,.34,8.1,8.1,0,0,1,1.85.95,10.516,10.516,0,0,1,1.6,1.37l1.75-1.9a8.215,8.215,0,0,0-2.02-1.71,9.985,9.985,0,0,0-2.55-1.1,10.471,10.471,0,0,0-2.78-.38,9.071,9.071,0,0,0-2.76.4,6.42,6.42,0,0,0-2.21,1.18,5.714,5.714,0,0,0-1.45,1.81,4.99,4.99,0,0,0-.51,2.25,5.181,5.181,0,0,0,.29,1.75,4.814,4.814,0,0,0,.86,1.48,6.861,6.861,0,0,0,2.21,1.47,27.7,27.7,0,0,0,3.54,1.24,20.963,20.963,0,0,1,2.21.7,7.019,7.019,0,0,1,1.41.71,2.526,2.526,0,0,1,1.1,2.09,2.663,2.663,0,0,1-.3,1.26,2.946,2.946,0,0,1-.88.99,3.994,3.994,0,0,1-1.33.63,6.458,6.458,0,0,1-1.71.21,7.994,7.994,0,0,1-3.37-.69,7.366,7.366,0,0,1-2.61-2.02l-2.02,1.75a8.367,8.367,0,0,0,3.2,2.51,10.672,10.672,0,0,0,4.57.95,9,9,0,0,0,3.73-.74,6.27,6.27,0,0,0,2.57-2.04,4.948,4.948,0,0,0,.93-2.97A5.541,5.541,0,0,0,208.22,41.95Z" fill="#fff"/>
    </g>
    <path id="icon" d="M248.66,34.5l-2.13-1.22c-4.66-2.66-12.28-7.03-16.94-9.69l-2.13-1.22c-4.66-2.66-8.47-.45-8.47,4.91V51.39c0,5.37,3.81,7.58,8.47,4.91l2.13-1.22c4.66-2.66,12.28-7.03,16.94-9.69l2.13-1.22C253.32,41.52,253.32,37.16,248.66,34.5Zm-14.45,8.34-6.77,3.5v-14l6.77,3.5,6.77,3.5Z" fill="#fff"/>
  </g>
</svg>
