<?xml version="1.0" encoding="utf-8"?>
<!-- Generator: Adobe Illustrator 26.0.0, SVG Export Plug-In . SVG Version: 6.00 Build 0)  -->
<svg version="1.1" id="Camada_1" xmlns="http://www.w3.org/2000/svg" xmlns:xlink="http://www.w3.org/1999/xlink" x="0px" y="0px"
	 viewBox="0 0 272.82 78.62" style="enable-background:new 0 0 272.82 78.62;" xml:space="preserve">
<style type="text/css">
	.st0{fill:none;stroke:#B1B1B1;stroke-miterlimit:10;}
	.st1{fill:#1D1D1B;}
	.st2{fill:#F26122;}
	.st3{fill:#FFFFFF;}
	.st4{fill:none;stroke:#FFFFFF;stroke-width:2.3327;stroke-linecap:square;stroke-linejoin:round;stroke-miterlimit:10;}
	.st5{fill:none;stroke:#1D1D1B;stroke-width:2.3193;stroke-linecap:square;stroke-linejoin:round;stroke-miterlimit:10;}
	.st6{fill:#ECECEC;}
	.st7{fill:#868686;}
</style>
<g>
	<path class="st1" d="M36.29,31.42c-0.31-0.32-0.65-0.64-1.05-0.92c-0.7-0.51-1.49-0.91-2.36-1.2c-0.88-0.29-1.78-0.44-2.72-0.44
		c-1.78,0-3.36,0.46-4.74,1.37s-2.47,2.16-3.27,3.73c-0.8,1.57-1.2,3.36-1.2,5.37c0,2.06,0.4,3.86,1.2,5.42
		c0.8,1.56,1.9,2.79,3.29,3.69c1.4,0.9,2.97,1.35,4.72,1.35c0.94,0,1.83-0.13,2.68-0.4c0.85-0.27,1.61-0.63,2.28-1.1
		c0.54-0.38,0.98-0.81,1.35-1.26l0.12,2.39h5.1V21.24h-5.41V31.42z M35.84,42.45c-0.43,0.89-1.03,1.59-1.79,2.09
		s-1.65,0.76-2.67,0.76c-1.02,0-1.9-0.25-2.65-0.76s-1.33-1.21-1.75-2.09s-0.63-1.93-0.63-3.12c0-1.17,0.21-2.2,0.63-3.1
		c0.42-0.9,1-1.6,1.75-2.09s1.63-0.74,2.65-0.74c1.01,0,1.9,0.25,2.67,0.74s1.36,1.19,1.79,2.09c0.43,0.9,0.65,1.94,0.65,3.1
		C36.48,40.52,36.27,41.56,35.84,42.45z"/>
	<path class="st1" d="M63.19,30.24c-1.36-0.9-2.91-1.35-4.66-1.35c-1.14,0-2.23,0.22-3.27,0.65c-1.04,0.43-1.91,0.99-2.61,1.68
		c-0.15,0.14-0.27,0.29-0.4,0.44l-0.08-2.38h-5.22v28.52h5.44v-10.6c0.04,0.04,0.07,0.09,0.11,0.13c0.74,0.74,1.63,1.33,2.68,1.77
		c1.05,0.44,2.16,0.67,3.33,0.67c1.75,0,3.31-0.45,4.68-1.35c1.37-0.9,2.45-2.14,3.24-3.71c0.79-1.57,1.18-3.36,1.18-5.37
		c0-2.03-0.4-3.83-1.2-5.39C65.63,32.38,64.55,31.15,63.19,30.24z M61.73,42.35c-0.43,0.88-1.03,1.55-1.79,2.04
		c-0.76,0.48-1.64,0.72-2.63,0.72c-1.02,0-1.9-0.24-2.67-0.72c-0.76-0.48-1.36-1.16-1.79-2.04s-0.65-1.88-0.65-3.03
		c0-1.14,0.22-2.15,0.65-3.03c0.43-0.88,1.03-1.55,1.79-2.02c0.76-0.47,1.65-0.7,2.67-0.7s1.9,0.24,2.65,0.72
		c0.75,0.48,1.34,1.16,1.77,2.02c0.43,0.86,0.65,1.87,0.65,3.01C62.37,40.47,62.16,41.48,61.73,42.35z"/>
	<path class="st1" d="M78.9,44.27l3.92-4.26c0.76-0.84,1.44-1.64,2.04-2.42c0.6-0.77,1.1-1.51,1.52-2.21s0.76-1.36,1.03-2
		s0.46-1.24,0.57-1.83c0.11-0.58,0.17-1.15,0.17-1.71c0-1.5-0.36-2.82-1.07-3.96c-0.71-1.14-1.69-2.03-2.93-2.67
		c-1.24-0.63-2.64-0.96-4.19-0.99c-1.47,0-2.86,0.3-4.15,0.91c-1.29,0.61-2.41,1.46-3.35,2.55c-0.94,1.09-1.66,2.37-2.17,3.84
		l4.26,2.4c0.38-0.94,0.82-1.74,1.33-2.4c0.51-0.66,1.05-1.16,1.64-1.5s1.21-0.51,1.87-0.51c0.71,0,1.31,0.13,1.79,0.38
		c0.48,0.25,0.85,0.6,1.1,1.05s0.38,0.96,0.38,1.54c0,0.51-0.14,1.07-0.42,1.69c-0.28,0.62-0.65,1.26-1.12,1.9s-0.95,1.28-1.45,1.88
		c-0.5,0.61-0.96,1.14-1.39,1.6l-7.88,8.72l1.26,3.12h17.59v-5.14H78.9z"/>
</g>
<g>
	<polygon class="st1" points="103.72,45.26 97.37,29.69 94.21,29.69 102.59,49.57 104.64,49.57 113.55,29.69 110.51,29.69 	"/>
	<path class="st1" d="M119.07,21.24c-0.69,0-1.22,0.19-1.6,0.57s-0.57,0.89-0.57,1.52c0,0.63,0.18,1.14,0.55,1.5
		c0.37,0.37,0.91,0.55,1.62,0.55c0.69,0,1.22-0.19,1.6-0.57s0.57-0.88,0.57-1.49c0-0.66-0.19-1.17-0.57-1.54
		S119.76,21.24,119.07,21.24z"/>
	<rect x="117.66" y="29.69" class="st1" width="2.86" height="19.87"/>
	<path class="st1" d="M141.99,32.87c-0.48-0.7-1.09-1.32-1.83-1.87c-0.74-0.54-1.57-0.97-2.49-1.28c-0.93-0.3-1.88-0.46-2.88-0.46
		c-1.78,0-3.38,0.44-4.8,1.33c-1.42,0.89-2.55,2.11-3.39,3.67s-1.26,3.34-1.26,5.35c0,1.98,0.41,3.75,1.24,5.31
		c0.82,1.56,1.95,2.79,3.39,3.67c1.43,0.89,3.05,1.33,4.85,1.33c0.96,0,1.9-0.15,2.8-0.46c0.9-0.3,1.71-0.72,2.42-1.26
		c0.71-0.53,1.3-1.13,1.77-1.81c0.06-0.08,0.1-0.17,0.16-0.25l0.05,3.39h2.82V21.39h-2.85V32.87z M141.25,43.59
		c-0.6,1.17-1.42,2.08-2.46,2.74c-1.04,0.66-2.22,0.99-3.54,0.99c-1.37,0-2.58-0.34-3.62-1.01s-1.85-1.59-2.44-2.76
		c-0.58-1.17-0.88-2.49-0.88-3.96c0-1.5,0.3-2.82,0.9-3.98c0.6-1.16,1.41-2.07,2.44-2.74c1.03-0.67,2.23-1.01,3.6-1.01
		c1.32,0,2.5,0.34,3.54,1.01c1.04,0.67,1.86,1.59,2.46,2.74s0.89,2.48,0.89,3.98C142.14,41.09,141.85,42.42,141.25,43.59z"/>
	<path class="st1" d="M165.39,31.96c-0.8-0.85-1.75-1.52-2.86-2c-1.1-0.48-2.33-0.72-3.67-0.72c-1.42,0-2.74,0.26-3.96,0.78
		c-1.22,0.52-2.26,1.25-3.14,2.19c-0.88,0.94-1.55,2.04-2.04,3.29c-0.48,1.26-0.72,2.66-0.72,4.21c0,2,0.43,3.78,1.29,5.33
		c0.86,1.55,2.06,2.75,3.6,3.62c1.54,0.86,3.29,1.29,5.27,1.29c1.01,0,2-0.13,2.97-0.4c0.96-0.27,1.85-0.62,2.67-1.07
		c0.81-0.44,1.51-0.96,2.09-1.54l-1.48-2.06c-1.12,0.94-2.14,1.57-3.07,1.88s-1.86,0.48-2.8,0.48c-1.6,0-2.96-0.32-4.09-0.95
		c-1.13-0.63-2-1.53-2.61-2.68c-0.52-0.99-0.81-2.15-0.88-3.45h15.73l0.04-1.33c0.05-1.4-0.13-2.68-0.53-3.85
		C166.79,33.82,166.19,32.81,165.39,31.96z M155.16,32.83c1.04-0.57,2.27-0.86,3.69-0.86c1.22,0,2.27,0.27,3.14,0.8
		c0.88,0.53,1.55,1.22,2.04,2.08c0.48,0.85,0.75,1.73,0.8,2.65v0.27h-12.77c0.13-0.9,0.36-1.71,0.7-2.4
		C153.32,34.25,154.12,33.4,155.16,32.83z"/>
	<path class="st1" d="M185.83,30.61c-1.54-0.89-3.28-1.33-5.23-1.33c-1.98,0-3.74,0.44-5.27,1.33c-1.54,0.89-2.74,2.11-3.62,3.66
		c-0.88,1.55-1.31,3.31-1.31,5.29c0,2,0.44,3.79,1.31,5.37c0.88,1.57,2.08,2.8,3.62,3.69c1.54,0.89,3.29,1.33,5.27,1.33
		c1.95,0,3.7-0.44,5.23-1.33c1.54-0.89,2.74-2.12,3.62-3.69s1.31-3.36,1.31-5.37c0-1.98-0.44-3.74-1.31-5.29
		C188.57,32.71,187.37,31.5,185.83,30.61z M186.88,43.49c-0.61,1.16-1.46,2.07-2.55,2.74c-1.09,0.67-2.33,1.01-3.73,1.01
		c-1.4,0-2.65-0.34-3.75-1.01c-1.1-0.67-1.97-1.59-2.59-2.74c-0.62-1.16-0.92-2.47-0.9-3.94c-0.03-1.45,0.27-2.75,0.9-3.9
		c0.62-1.16,1.48-2.06,2.59-2.7c1.1-0.65,2.35-0.97,3.75-0.97c1.4,0,2.64,0.32,3.73,0.97c1.09,0.65,1.94,1.54,2.55,2.68
		c0.61,1.14,0.91,2.45,0.91,3.92S187.49,42.34,186.88,43.49z"/>
	<path class="st1" d="M208.22,41.95c-0.29-0.66-0.78-1.24-1.47-1.75c-0.51-0.43-1.15-0.8-1.92-1.12c-0.77-0.32-1.72-0.63-2.84-0.93
		c-0.96-0.25-1.77-0.5-2.42-0.74s-1.15-0.5-1.5-0.78c-0.28-0.23-0.5-0.5-0.65-0.8s-0.23-0.65-0.23-1.03c0-0.46,0.1-0.88,0.29-1.26
		s0.47-0.7,0.84-0.97s0.81-0.48,1.33-0.63c0.52-0.15,1.08-0.23,1.69-0.23c0.68,0,1.35,0.11,2,0.34c0.65,0.23,1.26,0.55,1.85,0.95
		c0.58,0.41,1.12,0.86,1.6,1.37l1.75-1.9c-0.56-0.66-1.23-1.23-2.02-1.71c-0.79-0.48-1.64-0.85-2.55-1.1
		c-0.91-0.25-1.84-0.38-2.78-0.38c-0.99,0-1.91,0.13-2.76,0.4s-1.59,0.66-2.21,1.18c-0.62,0.52-1.1,1.12-1.45,1.81
		c-0.34,0.69-0.51,1.43-0.51,2.25c0,0.63,0.1,1.22,0.29,1.75c0.19,0.53,0.48,1.03,0.86,1.48c0.53,0.56,1.27,1.05,2.21,1.47
		c0.94,0.42,2.12,0.83,3.54,1.24c0.86,0.23,1.6,0.46,2.21,0.7c0.61,0.24,1.08,0.48,1.41,0.71c0.74,0.56,1.1,1.26,1.1,2.09
		c0,0.46-0.1,0.88-0.3,1.26c-0.2,0.38-0.5,0.71-0.88,0.99c-0.38,0.28-0.82,0.49-1.33,0.63c-0.51,0.14-1.08,0.21-1.71,0.21
		c-1.24,0-2.37-0.23-3.37-0.69s-1.87-1.13-2.61-2.02l-2.02,1.75c0.79,1.04,1.85,1.88,3.2,2.51c1.35,0.63,2.87,0.95,4.57,0.95
		c1.4,0,2.64-0.25,3.73-0.74c1.09-0.5,1.95-1.17,2.57-2.04c0.62-0.86,0.93-1.85,0.93-2.97C208.66,43.36,208.51,42.61,208.22,41.95z"
		/>
</g>
<path class="st1" d="M248.66,34.5l-2.13-1.22c-4.66-2.66-12.28-7.03-16.94-9.69l-2.13-1.22c-4.66-2.66-8.47-0.45-8.47,4.91v2.3
	c0,5.37,0,14.15,0,19.51v2.3c0,5.37,3.81,7.58,8.47,4.91l2.13-1.22c4.66-2.66,12.28-7.03,16.94-9.69l2.13-1.22
	C253.32,41.52,253.32,37.16,248.66,34.5z M234.21,42.84l-6.77,3.5v-7v-7l6.77,3.5l6.77,3.5L234.21,42.84z"/>
</svg>
